<svg xmlns="http://www.w3.org/2000/svg" shape-rendering="geometricPrecision" text-rendering="geometricPrecision" image-rendering="optimizeQuality" fill-rule="evenodd" clip-rule="evenodd" viewBox="0 0 512 511.998"><path d="M189.761 8.784c136.53-36.583 276.872 44.441 313.455 180.975 36.583 136.534-44.441 276.872-180.975 313.455-136.534 36.584-276.872-44.44-313.455-180.975C-27.802 185.705 53.226 45.367 189.761 8.784zm117.63 157.889c-8.052.982-15.384-4.743-16.366-12.796-.982-8.052 4.743-15.384 12.796-16.366 22.255-2.798 44.499.133 65.012 7.737l.051.02c20.993 7.763 40.317 20.478 56.118 36.961 5.632 5.854 5.449 15.173-.405 20.805s-15.174 5.449-20.806-.405c-12.671-13.217-28.223-23.437-45.158-29.716-16.335-6.068-33.886-8.422-51.242-6.24zM154.993 359.325c-8.726-13.552-2.813-25.011 11.67-22.567 59.576 16.09 120.164 16.417 181.817 0 10.138-.834 17.181 11.346 9.081 22.567-53.21 60.414-160.489 55.877-202.568 0zm137.906-128.204c-4.334 6.053-7.491 11.412-8.652 15.586-2.908 10.481 7.164 10.344 14.253 6.322 28.079-15.918 66.896-13.579 95.364.004 15.996 7.632 17.22-3.749 8.107-15.357-35.542-45.29-69.713-46.689-109.072-6.555zm-183.995-59.587c-3.878 6.24-12.086 8.149-18.327 4.272-6.24-3.879-8.15-12.087-4.271-18.327 9.923-15.891 28.14-30.636 47.441-41.635 21.827-12.441 45.915-20.427 61.451-20.065 7.331.172 13.135 6.256 12.963 13.588-.171 7.331-6.256 13.134-13.587 12.963-10.972-.257-29.696 6.361-47.707 16.627-15.859 9.039-30.526 20.669-37.963 32.577zm64.985 14.662c19.781 0 35.812 20.494 35.812 45.778s-16.031 45.782-35.812 45.782c-19.776 0-35.811-20.498-35.811-45.782 0-25.284 16.035-45.778 35.811-45.778z"/></svg>