<?xml version="1.0" encoding="UTF-8" standalone="no"?>
<svg
   version="1.1"
   id="Layer_1"
   x="0px"
   y="0px"
   width="122.875px"
   height="122.648px"
   viewBox="0 0 122.875 122.648"
   enable-background="new 0 0 122.875 122.648"
   xml:space="preserve"
   sodipodi:docname="plus-icon.svg"
   inkscape:version="1.3.2 (091e20e, 2023-11-25, custom)"
   xmlns:inkscape="http://www.inkscape.org/namespaces/inkscape"
   xmlns:sodipodi="http://sodipodi.sourceforge.net/DTD/sodipodi-0.dtd"
   xmlns="http://www.w3.org/2000/svg"
   xmlns:svg="http://www.w3.org/2000/svg"><defs
     id="defs1" /><sodipodi:namedview
     id="namedview1"
     pagecolor="#ffffff"
     bordercolor="#000000"
     borderopacity="0.25"
     inkscape:showpageshadow="2"
     inkscape:pageopacity="0.0"
     inkscape:pagecheckerboard="0"
     inkscape:deskcolor="#d1d1d1"
     inkscape:zoom="12.205661"
     inkscape:cx="61.446895"
     inkscape:cy="61.324001"
     inkscape:window-width="3200"
     inkscape:window-height="1711"
     inkscape:window-x="5591"
     inkscape:window-y="-9"
     inkscape:window-maximized="1"
     inkscape:current-layer="g1" /><g
     id="g1"
     style="fill:#000000"><path
       fill-rule="evenodd"
       clip-rule="evenodd"
       d="M108.993,47.079c7.683-0.059,13.898,6.12,13.882,13.805 c-0.018,7.683-6.26,13.959-13.942,14.019L75.24,75.138l-0.235,33.73c-0.063,7.619-6.338,13.789-14.014,13.78 c-7.678-0.01-13.848-6.197-13.785-13.818l0.233-33.497l-33.558,0.235C6.2,75.628-0.016,69.448,0,61.764 c0.018-7.683,6.261-13.959,13.943-14.018l33.692-0.236l0.236-33.73C47.935,6.161,54.209-0.009,61.885,0 c7.678,0.009,13.848,6.197,13.784,13.818l-0.233,33.497L108.993,47.079L108.993,47.079z"
       id="path1"
       style="fill:#2196f3;fill-opacity:1" /></g></svg>
